<svg width="229" height="50" viewBox="0 0 229 50" fill="none" xmlns="http://www.w3.org/2000/svg">
<g clip-path="url(#clip0_1_5)">
<path d="M19.5544 39.1C30.3539 39.1 39.1087 30.3472 39.1087 19.55C39.1087 8.75284 30.3539 0 19.5544 0C8.75479 0 0 8.75284 0 19.55C0 30.3472 8.75479 39.1 19.5544 39.1Z" fill="#2AD884"/>
<path d="M75.0091 32.6999C74.7878 33.8488 74.4333 34.8895 73.9505 35.8146C73.4652 36.7422 72.8567 37.5391 72.12 38.2052C71.3833 38.8714 70.5309 39.3842 69.5629 39.7487C68.5949 40.1107 67.5237 40.2942 66.3545 40.2942C65.0445 40.2942 63.8175 40.073 62.6785 39.6281C61.5395 39.1856 60.5564 38.5195 59.7291 37.6321C58.9019 36.7447 58.2507 35.6512 57.778 34.349C57.3028 33.0494 57.0664 31.531 57.0664 29.7965C57.0664 28.0619 57.2826 26.5738 57.7176 25.2138C58.1501 23.8513 58.7712 22.7025 59.5783 21.7648C60.3854 20.8271 61.3685 20.1057 62.5276 19.6029C63.6868 19.1001 64.9817 18.8463 66.4149 18.8463C67.6645 18.8463 68.801 19.0323 69.8194 19.4068C70.8377 19.7814 71.7152 20.2942 72.4519 20.9503C73.1886 21.6064 73.772 22.3782 74.207 23.2656C74.6394 24.1529 74.9085 25.1007 75.0091 26.1087H70.8025C70.5209 24.9599 69.9753 24.0675 69.1681 23.4315C68.361 22.7955 67.4533 22.4787 66.4451 22.4787C64.69 22.4787 63.3976 23.1097 62.5729 24.3691C61.7457 25.6286 61.3333 27.3581 61.3333 29.5577C61.3333 31.7573 61.7406 33.5345 62.5578 34.7764C63.375 36.0157 64.5995 36.6366 66.2339 36.6366C67.4835 36.6366 68.4867 36.2997 69.2436 35.6235C70.0004 34.9473 70.5184 33.9745 70.8025 32.705H75.0091V32.6999Z" fill="#1D1D1C"/>
<path d="M83.2687 39.9899C82.0593 39.9899 80.9781 39.7988 80.0302 39.4142C79.0822 39.0321 78.2801 38.4967 77.6239 37.8104C76.9676 37.1241 76.4698 36.2971 76.1253 35.3292C75.7834 34.3614 75.6099 33.3031 75.6099 32.1543C75.6099 31.0055 75.7859 29.917 76.1404 28.9466C76.4924 27.9788 77.0028 27.1518 77.6691 26.4655C78.3355 25.7792 79.1375 25.2513 80.0754 24.8767C81.0133 24.5047 82.0769 24.3162 83.2662 24.3162C84.4555 24.3162 85.4838 24.5022 86.4142 24.8767C87.342 25.2513 88.134 25.7742 88.7903 26.4504C89.4465 27.1266 89.9494 27.9486 90.3039 28.9165C90.6559 29.8843 90.8345 30.9627 90.8345 32.1543C90.8345 33.3458 90.6585 34.4192 90.3039 35.377C89.9494 36.3348 89.4465 37.1568 88.7903 37.8431C88.134 38.5293 87.3395 39.0572 86.3991 39.4318C85.4612 39.8038 84.4178 39.9924 83.2687 39.9924V39.9899ZM83.2687 36.6917C85.6699 36.6917 86.8693 35.1784 86.8693 32.1543C86.8693 29.1301 85.6699 27.647 83.2687 27.647C80.8674 27.647 79.6681 29.1502 79.6681 32.1543C79.6681 35.1583 80.8674 36.6917 83.2687 36.6917Z" fill="#1D1D1C"/>
<path d="M109.713 39.5977V30.5831C109.713 29.6756 109.501 28.9391 109.076 28.376C108.654 27.8129 108.088 27.5288 107.382 27.5288C106.675 27.5288 106.054 27.8305 105.581 28.4363C105.106 29.0422 104.87 29.7963 104.87 30.7038V39.5977H100.937V30.6435C100.937 30.0376 100.897 29.5449 100.817 29.1603C100.736 28.7782 100.6 28.474 100.409 28.2528C100.218 28.0316 99.9719 27.8757 99.6677 27.7827C99.3659 27.6922 99.0013 27.647 98.5789 27.647C96.9848 27.647 96.1877 28.6148 96.1877 30.5504V39.5952H92.2552V24.7133H95.9464V26.8903C96.4492 25.9024 97.0552 25.2262 97.7617 24.8642C98.4683 24.5022 99.3156 24.3187 100.304 24.3187C100.807 24.3187 101.257 24.3589 101.649 24.4393C102.044 24.5198 102.396 24.6555 102.708 24.8466C103.019 25.0376 103.319 25.284 103.6 25.5882C103.882 25.8898 104.163 26.2543 104.447 26.6766C104.85 25.8496 105.385 25.2513 106.052 24.8767C106.718 24.5047 107.523 24.3162 108.473 24.3162C109.22 24.3162 109.906 24.4419 110.53 24.6932C111.156 24.9446 111.689 25.2991 112.134 25.7516C112.577 26.2066 112.926 26.7345 113.177 27.3403C113.429 27.9461 113.555 28.5922 113.555 29.2759V39.5902H109.713V39.5977Z" fill="#1D1D1C"/>
<path d="M115.068 46.6466V24.716H118.85L118.88 26.531C119.788 25.0579 121.168 24.3239 123.024 24.3239C123.952 24.3239 124.814 24.5048 125.611 24.8694C126.408 25.2313 127.09 25.7567 127.653 26.443C128.216 27.1293 128.661 27.9664 128.983 28.9543C129.305 29.9423 129.466 31.0609 129.466 32.3128C129.466 33.4415 129.33 34.4747 129.058 35.4123C128.787 36.35 128.387 37.162 127.864 37.8482C127.339 38.5345 126.7 39.0624 125.943 39.437C125.186 39.809 124.324 39.9976 123.356 39.9976C121.52 39.9976 120.047 39.2208 118.938 37.6672V46.6517H115.066L115.068 46.6466ZM122.088 36.6341C124.346 36.6341 125.478 35.1006 125.478 32.0363C125.478 30.7065 125.166 29.6205 124.54 28.7834C123.914 27.9463 123.107 27.529 122.119 27.529C121.13 27.529 120.379 27.9211 119.743 28.708C119.106 29.4948 118.79 30.5229 118.79 31.7924C118.79 35.0202 119.888 36.6315 122.088 36.6315V36.6341Z" fill="#1D1D1C"/>
<path d="M155.133 39.5979C155.012 39.2157 154.932 38.7708 154.891 38.268C154.426 38.7934 153.813 39.2107 153.046 39.5224C152.279 39.8342 151.391 39.9925 150.383 39.9925C148.668 39.9925 147.414 39.6154 146.617 38.8588C145.82 38.1021 145.422 37.1192 145.422 35.9101C145.422 34.8417 145.593 33.9895 145.938 33.3535C146.28 32.7175 146.755 32.2198 147.361 31.8553C147.967 31.4933 148.686 31.2243 149.523 31.0534C150.36 30.8824 151.273 30.7266 152.261 30.5833C153.25 30.4425 153.916 30.2565 154.258 30.0227C154.6 29.7914 154.773 29.4118 154.773 28.8889C154.773 28.4038 154.547 28.0267 154.092 27.7552C153.637 27.4837 153.028 27.348 152.261 27.348C151.354 27.348 150.702 27.5491 150.31 27.9538C149.915 28.3585 149.669 28.8915 149.568 29.5576H145.908C145.928 28.7909 146.053 28.0845 146.285 27.441C146.516 26.7949 146.891 26.2419 147.404 25.7768C147.919 25.3118 148.588 24.9548 149.415 24.7034C150.242 24.452 151.251 24.3264 152.44 24.3264C153.629 24.3264 154.602 24.4571 155.419 24.7185C156.237 24.98 156.89 25.3595 157.386 25.8522C157.881 26.3475 158.238 26.9608 158.459 27.6974C158.681 28.4339 158.791 29.266 158.791 30.1936V39.6004H155.13L155.133 39.5979ZM154.861 32.3078C154.66 32.5089 154.366 32.6697 153.984 32.7929C153.602 32.9136 153.046 33.0443 152.319 33.1851C151.19 33.4063 150.413 33.6904 149.988 34.0322C149.566 34.3766 149.352 34.8693 149.352 35.5154C149.352 36.624 149.988 37.1795 151.258 37.1795C151.761 37.1795 152.231 37.0941 152.664 36.9231C153.099 36.7522 153.471 36.5209 153.783 36.2268C154.094 35.9352 154.348 35.5908 154.539 35.1987C154.73 34.8065 154.826 34.3867 154.826 33.9443L154.856 32.3103L154.861 32.3078Z" fill="#1D1D1C"/>
<path d="M171.622 39.598L169.263 30.9479L166.902 39.598H162.879L158.643 24.7161H162.789L165.21 34.2737L167.267 24.7161H171.26L173.591 34.2737L175.859 24.7161H179.914L175.647 39.598H171.624H171.622Z" fill="#1D1D1C"/>
<path d="M189.049 39.5979C188.928 39.2157 188.848 38.7708 188.808 38.268C188.342 38.7934 187.729 39.2107 186.962 39.5224C186.195 39.8342 185.308 39.9925 184.299 39.9925C182.584 39.9925 181.33 39.6154 180.533 38.8588C179.736 38.1021 179.338 37.1192 179.338 35.9101C179.338 34.8417 179.509 33.9895 179.854 33.3535C180.196 32.7175 180.671 32.2198 181.277 31.8553C181.883 31.4933 182.602 31.2243 183.439 31.0534C184.277 30.8824 185.189 30.7266 186.178 30.5833C187.166 30.4425 187.832 30.2565 188.174 30.0227C188.516 29.7914 188.689 29.4118 188.689 28.8889C188.689 28.4038 188.463 28.0267 188.008 27.7552C187.553 27.4837 186.944 27.348 186.178 27.348C185.27 27.348 184.619 27.5491 184.226 27.9538C183.832 28.3585 183.585 28.8915 183.485 29.5576H179.824C179.844 28.7909 179.969 28.0845 180.201 27.441C180.432 26.7949 180.807 26.2419 181.32 25.7768C181.835 25.3118 182.504 24.9548 183.331 24.7034C184.158 24.452 185.167 24.3264 186.356 24.3264C187.545 24.3264 188.518 24.4571 189.336 24.7185C190.153 24.98 190.806 25.3595 191.302 25.8522C191.797 26.3475 192.154 26.9608 192.375 27.6974C192.597 28.4339 192.707 29.266 192.707 30.1936V39.6004H189.046L189.049 39.5979ZM188.777 32.3078C188.576 32.5089 188.282 32.6697 187.9 32.7929C187.518 32.9136 186.962 33.0443 186.235 33.1851C185.106 33.4063 184.329 33.6904 183.904 34.0322C183.482 34.3766 183.268 34.8693 183.268 35.5154C183.268 36.624 183.905 37.1795 185.174 37.1795C185.677 37.1795 186.147 37.0941 186.58 36.9231C187.015 36.7522 187.387 36.5209 187.699 36.2268C188.01 35.9352 188.264 35.5908 188.456 35.1987C188.647 34.8065 188.742 34.3867 188.742 33.9443L188.772 32.3103L188.777 32.3078Z" fill="#1D1D1C"/>
<path d="M203.904 37.6321C203.622 38.2983 203.112 38.8161 202.375 39.1907C201.639 39.5652 200.806 39.7512 199.879 39.7512C199.092 39.7512 198.365 39.6256 197.701 39.3742C197.035 39.1228 196.461 38.7583 195.976 38.2857C195.491 37.8131 195.114 37.2475 194.842 36.5914C194.571 35.9353 194.435 35.1962 194.435 34.3691V24.7186H198.367V33.7935C198.367 35.6487 199.205 36.5763 200.879 36.5763C201.787 36.5763 202.519 36.3148 203.072 35.7895C203.627 35.2641 203.904 34.6004 203.904 33.7935V24.7186H207.837V39.9951C207.837 41.0434 207.661 41.981 207.306 42.8081C206.954 43.6351 206.469 44.3314 205.853 44.8945C205.237 45.4576 204.51 45.8925 203.675 46.1942C202.838 46.4958 201.945 46.6492 200.997 46.6492C198.8 46.6492 197.155 46.0936 196.067 44.985C194.978 43.8764 194.432 42.3531 194.432 40.4174H198.093C198.093 41.3048 198.35 42.0011 198.865 42.5039C199.381 43.0067 200.153 43.2605 201.181 43.2605C201.543 43.2605 201.888 43.1851 202.209 43.0343C202.531 42.8835 202.82 42.6723 203.072 42.3983C203.323 42.1268 203.527 41.7874 203.678 41.3852C203.829 40.9805 203.904 40.5381 203.904 40.0554V37.6346V37.6321Z" fill="#1D1D1C"/>
<path d="M218.578 29.2233C218.477 28.4968 218.216 27.989 217.791 27.6949C217.369 27.4033 216.702 27.2575 215.795 27.2575C215.048 27.2575 214.474 27.353 214.07 27.5441C213.665 27.7351 213.464 28.0544 213.464 28.4968C213.464 28.9392 213.665 29.2786 214.07 29.5099C214.472 29.7411 215.078 29.9699 215.885 30.1911C216.732 30.4324 217.539 30.6512 218.306 30.8422C219.073 31.0333 219.747 31.2419 220.333 31.4631C221.12 31.7849 221.723 32.2248 222.148 32.7778C222.573 33.3334 222.784 34.0926 222.784 35.0629C222.784 36.6165 222.234 37.8256 221.135 38.6929C220.036 39.5602 218.417 39.9925 216.28 39.9925C213.982 39.9925 212.222 39.5074 211 38.5395C209.778 37.5717 209.149 36.3324 209.109 34.8191H213.162C213.162 35.5255 213.434 36.0684 213.979 36.4531C214.525 36.8352 215.279 37.0287 216.247 37.0287C216.954 37.0287 217.567 36.9131 218.093 36.6818C218.616 36.4505 218.88 36.0509 218.88 35.4878C218.88 34.9624 218.643 34.5903 218.168 34.3691C217.693 34.1479 217.135 33.9568 216.488 33.7934C215.239 33.4918 214.231 33.2178 213.464 32.9764C212.697 32.7351 212.051 32.4435 211.528 32.0991C210.821 31.6567 210.333 31.1514 210.059 30.5858C209.788 30.0227 209.652 29.4068 209.652 28.7406C209.652 28.1147 209.762 27.5315 209.984 26.986C210.205 26.4405 210.57 25.9729 211.072 25.5783C211.575 25.1861 212.227 24.8769 213.024 24.6557C213.821 24.4345 214.784 24.3239 215.913 24.3239C218.07 24.3239 219.659 24.7386 220.677 25.5632C221.696 26.3902 222.256 27.6094 222.357 29.2233H218.575H218.578Z" fill="#1D1D1C"/>
<path d="M140.549 33.6702C140.549 34.5978 140.363 35.3143 139.988 35.817C139.614 36.3223 139.036 36.5737 138.249 36.5737C137.462 36.5737 136.861 36.3173 136.509 35.8019C136.157 35.2866 135.978 34.5576 135.978 33.6099V27.4988H142.02V24.716H135.978V20.6938H132.106V24.716H130.039V27.4937H132.106V34.002C132.106 34.809 132.217 35.5757 132.438 36.2997C132.659 37.0262 133.016 37.6622 133.511 38.2052C134.007 38.7507 134.635 39.183 135.402 39.5048C136.169 39.8266 137.097 39.9875 138.186 39.9875C139.274 39.9875 140.137 39.8266 140.894 39.5048C141.65 39.183 142.274 38.7431 142.769 38.1876C143.265 37.6345 143.627 36.9985 143.858 36.2821C144.089 35.5656 144.205 34.4998 144.205 33.7155L140.544 33.6677L140.549 33.6702Z" fill="#1D1D1C"/>
<path d="M226.43 39.5954C227.475 39.5954 228.321 38.7491 228.321 37.705C228.321 36.661 227.475 35.8146 226.43 35.8146C225.386 35.8146 224.54 36.661 224.54 37.705C224.54 38.7491 225.386 39.5954 226.43 39.5954Z" fill="#2AD884"/>
<path d="M31.9132 8.46895C31.4581 7.08384 30.5102 5.85709 28.7425 5.29651C27.3269 4.84905 25.6121 4.88172 24.0381 5.38449C21.9135 6.06071 20.342 7.48102 19.726 9.28092C19.6631 9.46694 19.6053 9.67056 19.5575 9.88927C19.7989 9.8038 20.0352 9.71078 20.2716 9.61777C20.2992 9.6052 20.3294 9.59515 20.3571 9.58258C20.5557 9.50214 20.7543 9.42421 20.953 9.34879C21.3452 9.20048 21.74 9.06473 22.1549 8.97926C23.2637 8.7505 24.3952 8.7505 25.5141 8.6223C27.42 8.40359 29.3234 8.12205 31.2242 8.35835C31.4556 8.386 31.6869 8.42371 31.9157 8.46895H31.9132Z" fill="#1D1D1C" stroke="#1D1D1C" stroke-width="0.236268" stroke-miterlimit="10"/>
<path d="M45.8455 23.3383C45.8455 23.3383 41.1361 -2.22978 11.0364 12.6973C11.0364 12.6973 8.76335 13.459 8.48425 18.0668C8.11967 24.1051 12.4444 39.9849 17.6894 46.0734C19.1478 47.7677 20.4628 48.4288 21.2875 48.7406C22.5849 49.2307 23.8069 49.2911 24.9459 49.2207C32.5193 48.7556 39.899 44.2534 39.899 44.2534C41.9205 43.0015 44.5581 41.1488 47.3591 38.4867C50.0194 35.9578 51.4425 32.3479 51.0402 28.6978C50.7435 25.998 49.4838 23.4716 45.8455 23.3383Z" fill="white" stroke="#1D1D1C" stroke-width="1.41761" stroke-miterlimit="10"/>
<path d="M49.9541 23.1222C49.8711 22.8632 49.72 22.4206 49.3705 22.2346C48.9305 22.0008 48.405 22.217 47.5702 22.5588C47.1855 22.7172 46.7128 22.9133 46.1395 23.318C45.3047 23.9062 44.6661 24.3613 44.651 24.8665C44.6208 25.9198 47.2936 27.7549 48.9959 26.6865C50.2204 25.9173 50.2581 24.0722 49.9362 23.0641L49.9541 23.1222Z" fill="#1D1D1C" stroke="#1D1D1C" stroke-width="1.89014" stroke-miterlimit="10"/>
<path d="M20.3421 6.58864C18.2829 5.4901 16.2009 6.09091 15.0871 6.41267C12.5651 7.14168 8.98969 9.35637 8.71311 12.828C8.55219 14.8541 9.60823 16.4278 9.92755 16.8903C10.6442 17.9285 11.5217 18.5846 12.2534 18.9919C12.985 19.3991 13.85 19.5524 14.6898 19.4343C16.2663 19.2131 18.5242 18.6047 20.5508 16.8978C21.6546 15.9677 23.196 14.6631 23.46 12.5012C23.7416 10.1759 22.4391 7.70478 20.3421 6.58613V6.58864Z" fill="#1D1D1C" stroke="#1D1D1C" stroke-width="0.236268" stroke-miterlimit="10"/>
<path d="M43.273 28.4086C43.5597 23.7781 39.9691 18.8786 35.9059 18.8585C31.5107 18.8359 28.9938 24.5297 28.7298 25.1255C28.0987 26.5533 26.5373 30.0878 28.4533 33.2552C30.1127 35.9953 33.5499 37.1014 36.3937 36.6112C40.4393 35.9123 43.0467 32.0209 43.273 28.4111V28.4086Z" fill="#1D1D1C" stroke="#1D1D1C" stroke-width="0.236268" stroke-miterlimit="10"/>
<path d="M50.3184 34.2533C50.0946 34.1125 48.9732 37.0838 46.4789 37.6897C44.7767 38.1019 43.0342 37.2648 41.6211 36.2392C41.249 35.9677 40.721 36.1562 40.6103 36.6037V36.6188C40.5425 36.8727 40.638 37.1391 40.8492 37.295C41.3571 37.6695 42.0611 38.1095 42.9563 38.4589C43.9293 38.841 45.3801 39.4091 46.8058 39.017C49.544 38.2628 50.5673 34.4116 50.3184 34.2558V34.2533Z" fill="#1D1D1C"/>
<path d="M38.1088 27.3225C39.0531 27.3225 39.8186 26.5572 39.8186 25.6131C39.8186 24.669 39.0531 23.9037 38.1088 23.9037C37.1645 23.9037 36.399 24.669 36.399 25.6131C36.399 26.5572 37.1645 27.3225 38.1088 27.3225Z" fill="white"/>
<path d="M48.9806 22.3077C48.4048 22.167 47.7913 22.353 47.3789 22.7904C47.653 22.715 48.1936 22.6094 48.8549 22.7451C49.4709 22.8708 49.9008 23.1499 50.1271 23.3183C50.0995 23.2479 49.7927 22.5063 48.9831 22.3077H48.9806Z" fill="white"/>
<path d="M13.6661 8.11461C13.1054 8.41627 12.2782 8.87127 11.5591 9.80642C11.2021 10.2715 10.2642 11.6365 10.3622 13.5445C10.4226 14.7159 10.8475 15.5932 11.114 16.0508C10.8928 14.7335 11.0864 13.7079 11.2398 13.1372C11.6295 11.6868 12.419 10.7441 13.0325 10.01C13.7994 9.09249 14.516 8.55202 14.6996 8.41627C15.562 7.78027 16.3842 7.40571 16.9801 7.18701C16.256 7.22723 15.0038 7.39315 13.6661 8.11713V8.11461Z" fill="white"/>
</g>
<defs>
<clipPath id="clip0_1_5">
<rect width="228.324" height="50" fill="white"/>
</clipPath>
</defs>
</svg>
